<?xml version="1.0" encoding="UTF-8"?>
<svg version="1.1" xmlns="http://www.w3.org/2000/svg" width="1024" height="1024">
<path d="M0 0 C1.4757922 -0.00134834 2.95158405 -0.00313318 4.42737526 -0.00531223 C8.47844806 -0.01002774 12.52949831 -0.00854528 16.58057221 -0.00603446 C20.98958922 -0.00439841 25.39860147 -0.0085447 29.80761695 -0.01194364 C37.53372652 -0.0170942 45.25982982 -0.01851543 52.98594093 -0.01748753 C64.4751214 -0.0159627 75.96429494 -0.02012413 87.45347406 -0.02536215 C109.16688612 -0.03503489 130.88029583 -0.03784636 152.5937098 -0.03841921 C169.36061127 -0.03887867 186.12751182 -0.04093658 202.89441299 -0.04411983 C207.71992421 -0.04501737 212.54543543 -0.04590718 217.37094665 -0.04679471 C219.17037296 -0.04712628 219.17037296 -0.04712628 221.00615133 -0.04746456 C254.75056584 -0.05361902 288.49498004 -0.05756509 322.23939514 -0.05712128 C323.51172461 -0.0571057 324.78405407 -0.05709012 326.09493898 -0.05707407 C332.54370816 -0.05699096 338.99247735 -0.05689192 345.44124654 -0.05678936 C347.36238788 -0.05675944 347.36238788 -0.05675944 349.32234015 -0.05672892 C351.91235046 -0.05668848 354.50236077 -0.05664669 357.09237109 -0.05660353 C397.39370078 -0.0559907 437.69502205 -0.06349866 477.99634933 -0.07717609 C523.26895448 -0.09253433 568.5415541 -0.10114248 613.81416202 -0.10021287 C618.64093065 -0.10013824 623.46769929 -0.10008953 628.29446793 -0.10005856 C630.07719338 -0.10004107 630.07719338 -0.10004107 631.8959335 -0.10002324 C651.02672832 -0.09999246 670.15751584 -0.10637994 689.28830849 -0.11499082 C708.51233392 -0.12346475 727.73634866 -0.12445927 746.96037492 -0.1178815 C758.38191262 -0.11418422 769.80341786 -0.11602357 781.22495213 -0.12582384 C788.85574335 -0.13181843 796.48651103 -0.13053416 804.11730117 -0.12335334 C808.46402019 -0.11946748 812.81067636 -0.11870879 817.15739098 -0.12681069 C821.11780142 -0.13412782 825.07809709 -0.13210832 829.03850255 -0.12288683 C830.45642153 -0.1211765 831.87434966 -0.12275761 833.29225927 -0.12818803 C850.75648173 -0.19055239 868.05322866 0.97722282 881.04566574 13.7887907 C891.3986101 25.12281208 892.81899785 39.26215967 892.74238873 54.05671692 C892.74582801 55.53965681 892.75057868 57.02259413 892.75650969 58.50552616 C892.76897285 62.56718199 892.7628904 66.62862671 892.75367601 70.69028331 C892.74695084 75.1142081 892.75764004 79.53809724 892.76607186 83.96201438 C892.77843471 91.7112217 892.77965283 99.46036847 892.77352142 107.20958233 C892.76442804 118.73312311 892.77246428 130.25660792 892.78381266 141.78014441 C892.80348175 162.36244737 892.80582651 182.94472515 892.80061746 203.52703526 C892.79606072 221.54080609 892.79665893 239.55456694 892.80245781 257.56833744 C892.80321467 259.98445399 892.80397065 262.40057055 892.80472576 264.8166871 C892.80587095 268.45753923 892.80702082 272.09839134 892.808185 275.73924346 C892.81889055 309.59011724 892.82361469 343.44098769 892.81571484 377.29186249 C892.81526908 379.20604368 892.81526908 379.20604368 892.81481431 381.1588952 C892.81236536 391.52196279 892.80975378 401.88503033 892.80713018 412.24809787 C892.79702786 452.67061347 892.80538265 493.09308754 892.82862473 533.51559734 C892.85469518 578.93069657 892.86754581 624.3457708 892.86043698 669.76087779 C892.85972091 674.60307991 892.85904653 679.44528204 892.85839653 684.28748417 C892.85822672 685.47975683 892.85805691 686.6720295 892.85788196 687.90043164 C892.85557871 705.90036037 892.86355722 723.90026588 892.876688 741.9001894 C892.89159426 762.37046872 892.89244908 782.84069362 892.87461709 803.31097177 C892.86504955 814.76566938 892.86649828 826.22024007 892.88385178 837.67492922 C892.89433732 845.32903449 892.89024639 852.98304306 892.87437174 860.6371388 C892.86573641 864.99636748 892.86332394 869.35534741 892.87864106 873.71456335 C892.89246901 877.68753442 892.88758591 881.6600449 892.86835587 885.63298949 C892.86464848 887.05428375 892.86749733 888.47561593 892.87806896 889.89687571 C892.97044291 903.24543395 891.22740805 916.59301768 882.36207199 927.12863445 C881.84902512 927.7628532 881.33597824 928.39707195 880.80738449 929.05050945 C872.99566952 937.79664009 860.72973131 941.21520676 849.36207199 942.12863445 C844.53568848 942.27420716 839.71022591 942.26661804 834.88212204 942.26006222 C833.39903343 942.26171341 831.91594526 942.26380039 830.43285781 942.26628232 C826.3521896 942.27183869 822.27154242 942.27117844 818.19087164 942.26950473 C813.75321802 942.26877296 809.3155703 942.27379814 804.8779192 942.27807975 C796.074019 942.2856571 787.27012487 942.28785267 778.46622175 942.2884088 C767.92179147 942.2893227 757.3773668 942.295991 746.83293893 942.30275563 C721.34768666 942.31881509 695.86243499 942.32471877 670.37717857 942.32950438 C658.32126759 942.3318403 646.26535708 942.33544293 634.20944647 942.33919975 C592.94154067 942.35203498 551.67363514 942.36275438 510.40572739 942.36620235 C507.81520921 942.36642399 505.22469103 942.36664577 502.63417286 942.36686771 C500.03739734 942.36708835 497.44062183 942.36730883 494.84384632 942.36752915 C489.63426399 942.36797171 484.42468166 942.36841882 479.21509933 942.36886883 C477.92342596 942.36897822 476.63175258 942.36908761 475.30093758 942.36920032 C433.41516169 942.37283122 391.5294031 942.3887527 349.64363384 942.41205919 C305.36032073 942.4366547 261.0770175 942.45037506 216.79369736 942.45157027 C211.93259811 942.45174173 207.07149887 942.45195716 202.21039963 942.4522047 C201.01345893 942.45226047 199.81651824 942.45231624 198.58330661 942.4523737 C179.32075579 942.45352436 160.05822273 942.46454763 140.79567791 942.47909176 C121.43470546 942.49345745 102.07375578 942.49669332 82.71277946 942.48865178 C71.21167254 942.48419595 59.7106391 942.48805436 48.20954183 942.50389029 C40.52308974 942.51364447 32.8366891 942.51245782 25.15023747 942.50245406 C20.77330935 942.49706526 16.39652228 942.49634153 12.01960588 942.50896278 C8.02939634 942.52037259 4.03944151 942.51770039 0.04924043 942.50429571 C-1.37721084 942.50188136 -2.8036822 942.5043753 -4.23011126 942.51269218 C-20.09909795 942.5990553 -37.14880527 941.04783995 -49.51292801 930.00363445 C-60.63808084 917.60315923 -62.10212851 900.95099204 -62.01545143 885.04536724 C-62.01858859 883.57002654 -62.02303806 882.09468816 -62.02866453 880.61935484 C-62.04027439 876.58812516 -62.0333953 872.55711296 -62.02333067 868.52588709 C-62.01568782 864.13148901 -62.02551324 859.73712304 -62.03306067 855.34272957 C-62.0438759 847.64848956 -62.04357926 839.95431274 -62.03591919 832.26006985 C-62.02455932 820.81835541 -62.03037942 809.37669416 -62.03954411 797.93498006 C-62.05533432 777.49864376 -62.05397495 757.0623356 -62.04530737 736.62599662 C-62.03775949 718.74177156 -62.03579117 700.85755682 -62.03937531 682.9733305 C-62.03960446 681.78683906 -62.03983362 680.60034763 -62.04006972 679.3779019 C-62.04100374 674.56149688 -62.04195894 669.74509186 -62.04294901 664.92868685 C-62.05212516 619.75089575 -62.04380695 574.57312257 -62.02765832 529.39533423 C-62.0134216 489.26117731 -62.01469548 449.12704894 -62.02904129 408.99289227 C-62.0451066 363.89751179 -62.05147438 318.80214716 -62.0422045 273.70676422 C-62.04124235 268.89915562 -62.04030383 264.09154702 -62.03937531 259.28393841 C-62.03913807 258.10019022 -62.03890084 256.91644204 -62.03865642 255.6968227 C-62.03524459 237.82422525 -62.03923374 219.95163925 -62.04681396 202.07904339 C-62.05539041 181.75627943 -62.05325005 161.43354801 -62.03697173 141.11078811 C-62.02816272 129.73809705 -62.02758808 118.36547648 -62.03891026 106.99278725 C-62.04564013 99.39469231 -62.04144577 91.79665384 -62.02839595 84.19856726 C-62.02126497 79.87057533 -62.01880836 75.54272335 -62.0296139 71.21473587 C-62.0393587 67.2713367 -62.03511077 63.32820066 -62.02007192 59.38482039 C-62.01707002 57.97308987 -62.01899666 56.56133717 -62.02668973 55.14962442 C-62.09992556 40.67423417 -60.47221986 25.14857583 -50.59886551 13.7809782 C-36.27546334 0.24207332 -18.6455678 -0.02953301 0 0 Z " fill="#FFFFFF" transform="translate(103.6379280090332,39.871365547180176)"/>
<path d="M0 0 C24.4112425 -0.75429705 46.03747633 6.94089042 64.50390625 23.15234375 C65.26445313 23.8175 66.025 24.48265625 66.80859375 25.16796875 C77.56526613 35.21745506 84.58617191 48.41354654 89.50390625 62.15234375 C89.72981445 62.77898926 89.95572266 63.40563477 90.18847656 64.05126953 C95.645423 80.24188711 93.86902791 98.31461789 93.50390625 115.15234375 C94.77911133 115.29406006 96.05431641 115.43577637 97.36816406 115.58178711 C100.68660922 115.95057312 102.71965292 116.41268788 105.25390625 118.71484375 C105.785 119.16988281 106.31609375 119.62492187 106.86328125 120.09375 C112.86072738 127.61911693 113.08193651 134.27591788 113.02148438 143.6015625 C113.02691299 144.94935866 113.03403979 146.29714887 113.04272461 147.64492798 C113.06087344 151.28552076 113.05392584 154.92565729 113.04120827 158.56625748 C113.0310365 162.38752668 113.04048549 166.20875846 113.04675293 170.0300293 C113.05401725 176.44554614 113.04447373 182.86087841 113.02539062 189.27636719 C113.00362408 196.67918662 113.01067632 204.08156529 113.03269625 211.48437405 C113.05088508 217.85577112 113.05339162 224.227036 113.04294157 230.59845066 C113.03672569 234.39703654 113.03581811 238.19541568 113.04908752 241.99398804 C113.06069644 245.56634386 113.05252965 249.13813493 113.0295105 252.71043015 C113.02175336 254.63634224 113.03353622 256.56230245 113.04602051 258.4881897 C112.96874105 266.43990094 112.00660568 271.81445079 106.8984375 278.140625 C97.35574817 286.1282094 86.75671074 285.58594876 74.99389648 285.54052734 C73.22231727 285.54459722 71.4507406 285.54994143 69.6791687 285.55645752 C64.88793119 285.57008645 60.09688835 285.56485105 55.30564761 285.55532026 C50.28189 285.54770189 45.25814856 285.5547752 40.23439026 285.55947876 C31.80051697 285.56492947 23.36672262 285.55776214 14.93286133 285.54345703 C5.19263399 285.52712656 -4.54740497 285.53242469 -14.28762776 285.54893625 C-22.66325284 285.5625643 -31.03882133 285.56446448 -39.41445392 285.55662024 C-44.41129355 285.55195167 -49.40804473 285.55129654 -54.40487862 285.56122971 C-59.10241231 285.56991647 -63.79970383 285.56384624 -68.49721146 285.54654694 C-70.21767844 285.54259145 -71.93816592 285.54370002 -73.65862465 285.55033493 C-76.01374179 285.5585778 -78.36809109 285.5481967 -80.72315979 285.53329468 C-82.03885232 285.5321636 -83.35454485 285.53103252 -84.71010685 285.52986717 C-92.32830628 284.77021089 -98.38223298 281.83365131 -103.49609375 276.15234375 C-108.021629 269.09788381 -108.06258843 262.02302818 -107.99780273 253.86499023 C-108.00320572 252.55979431 -108.0086087 251.25459839 -108.01417542 249.90985107 C-108.02805242 246.35400333 -108.01701623 242.79864365 -108.0004642 239.24282336 C-107.98653721 235.50831971 -107.99308233 231.7738422 -107.99659729 228.0393219 C-107.99929307 221.77100834 -107.98587734 215.50288696 -107.96264648 209.23461914 C-107.93602902 202.0028123 -107.93429566 194.77132636 -107.94603485 187.5394873 C-107.95683844 180.56144536 -107.95060612 173.58351873 -107.93647957 166.60548592 C-107.93074326 163.6451448 -107.93078376 160.68488872 -107.93554497 157.72454643 C-107.94123226 153.58628951 -107.92193609 149.44850617 -107.90014648 145.31030273 C-107.90464813 144.09085464 -107.90914978 142.87140656 -107.91378784 141.61500549 C-107.84901031 134.19914735 -107.37591923 128.06945234 -102.84765625 121.91015625 C-97.57320952 116.92210481 -93.6730317 115.3140429 -86.49609375 114.15234375 C-86.48674805 113.18111572 -86.47740234 112.2098877 -86.46777344 111.20922852 C-86.42712248 107.51658463 -86.36118198 103.8247103 -86.28857422 100.13256836 C-86.26079048 98.55129067 -86.23937044 96.96988508 -86.22509766 95.38842773 C-85.9638244 68.03311735 -77.18009999 44.87701938 -58.2890625 24.78515625 C-42.34372547 9.75416722 -21.8388626 0.95163759 0 0 Z " fill="#0092FF" transform="translate(508.49609375,180.84765625)"/>
<path d="M0 0 C1.45973174 0.00113079 2.91946574 0.00049011 4.37919617 -0.00177002 C8.30837536 -0.00290909 12.23705763 0.02046783 16.1661222 0.04852581 C20.28469755 0.07367542 24.40328659 0.07589208 28.52192688 0.08062744 C36.30609901 0.09301764 44.09004415 0.12578515 51.87411672 0.1660254 C60.74236923 0.2108669 69.61063307 0.23276115 78.47897089 0.25280714 C96.70786994 0.29452172 114.93655826 0.36479607 133.1652832 0.45410156 C133.03037979 1.05380264 132.89547638 1.65350372 132.75648499 2.27137756 C132.48909767 3.46602882 132.48909767 3.46602882 132.21630859 4.68481445 C132.04015518 5.47014053 131.86400177 6.25546661 131.68251038 7.06459045 C130.75151965 11.36562642 129.99337055 15.6983034 129.22192383 20.03027344 C128.27107503 25.24251792 128.27107503 25.24251792 127.1652832 27.45410156 C126.4595989 27.45556812 125.7539146 27.45703468 125.02684593 27.45854568 C107.85019104 27.49560912 90.6737517 27.55461758 73.49725914 27.6380043 C65.19079645 27.67780135 56.88442859 27.71019043 48.57788086 27.72509766 C41.33726588 27.73811076 34.09685949 27.76506656 26.85636199 27.80871463 C23.02308006 27.83133733 19.1900555 27.84701177 15.3567009 27.84598541 C11.74667132 27.84523926 8.13721081 27.86317121 4.52732849 27.89526939 C2.57474719 27.9078154 0.62207038 27.90070084 -1.33053589 27.89295959 C-9.91582807 27.93696702 -9.91582807 27.93696702 -16.8347168 32.45410156 C-18.66110177 35.44327826 -19.08501293 37.6652035 -19.08639908 41.14622307 C-19.09161457 42.09100387 -19.09683007 43.03578468 -19.10220361 44.00919521 C-19.09774216 45.04400716 -19.09328072 46.07881912 -19.08868408 47.14498901 C-19.09180406 48.24673246 -19.09492404 49.3484759 -19.09813857 50.4836055 C-19.10613846 54.1885057 -19.09978705 57.89324301 -19.09350586 61.59814453 C-19.09621487 64.24906904 -19.09970276 66.89998219 -19.10412598 69.55090332 C-19.11302727 76.01208762 -19.11109453 82.4732255 -19.10530069 88.93441163 C-19.10078632 94.18598538 -19.10017033 99.43754611 -19.10234833 104.68912125 C-19.10265479 105.43619448 -19.10296126 106.18326772 -19.10327701 106.95297954 C-19.10391646 108.47060902 -19.10456488 109.9882385 -19.1052222 111.50586797 C-19.11092785 125.74324118 -19.10436432 139.98058865 -19.09362146 154.21795763 C-19.0846894 166.43356669 -19.08623469 178.64913773 -19.09545898 190.86474609 C-19.10616378 205.04762178 -19.11037464 219.23047488 -19.10423446 233.41335404 C-19.10359736 234.92605281 -19.10296862 236.43875157 -19.10234833 237.95145035 C-19.1018855 239.06787867 -19.1018855 239.06787867 -19.10141332 240.2068611 C-19.09968674 245.45094061 -19.10260078 250.6950058 -19.10730743 255.9390831 C-19.11291876 262.33173688 -19.11139468 268.72434155 -19.10074595 275.11698972 C-19.09549204 278.3784722 -19.09450543 281.63985596 -19.10004425 284.90134048 C-19.10549628 288.43739133 -19.09866936 291.97321078 -19.08868408 295.50924683 C-19.09314553 296.53959734 -19.09760697 297.56994785 -19.10220361 298.63152111 C-19.12585474 305.78154126 -19.12585474 305.78154126 -16.8347168 312.45410156 C-12.12626678 316.38074626 -8.26150637 317.02851669 -2.32012177 316.95746613 C-1.04868583 316.96618677 -1.04868583 316.96618677 0.24843568 316.97508359 C3.0960469 316.98971146 5.94279996 316.97578531 8.79040527 316.96203613 C10.84958732 316.96664394 12.90876609 316.97299604 14.96793795 316.98094511 C20.6322727 316.99767801 26.29633867 316.98937397 31.96067452 316.97700024 C38.06709908 316.96796831 44.17347667 316.98191025 50.27989197 316.99291992 C61.55283578 317.00969977 72.82566976 317.00821589 84.09861086 316.99727405 C94.51232876 316.98721569 104.92601518 316.98458321 115.33973694 316.98936462 C116.0302408 316.98967016 116.72074465 316.9899757 117.43217287 316.9902905 C120.23508426 316.99153584 123.03799564 316.99280944 125.84090699 316.99412956 C152.13962351 317.00636826 178.43828531 316.99526745 204.73699338 316.97374197 C228.10683675 316.95475924 251.47659294 316.95645774 274.84643555 316.97558594 C301.09674718 316.99699993 327.34701046 317.00550033 353.59732962 316.99313688 C356.39516289 316.99185399 359.19299617 316.99060263 361.99082947 316.98936462 C363.02419229 316.98889016 363.02419229 316.98889016 364.07843113 316.98840611 C374.48614365 316.98385434 384.89382125 316.98918081 395.30152893 316.99928284 C407.13441492 317.01071085 418.96719795 317.00749418 430.80007994 316.98615986 C436.84026919 316.97562941 442.88028125 316.97156168 448.92046928 316.98475647 C454.44603101 316.99664472 459.97125074 316.99017661 465.49678129 316.96884626 C467.49938379 316.96436507 469.50201498 316.96668028 471.50459915 316.97634941 C474.22037677 316.98845978 476.9349729 316.97609293 479.65068817 316.95746613 C480.82532498 316.97151312 480.82532498 316.97151312 482.02369183 316.9858439 C487.20915474 316.91443841 490.22646053 315.82432183 494.1652832 312.45410156 C496.18661948 309.54915254 496.415591 307.20443278 496.41696548 303.70954132 C496.42218098 302.75307693 496.42739647 301.79661254 496.43277001 300.81116438 C496.42830857 299.76331534 496.42384713 298.7154663 496.41925049 297.63586426 C496.42393046 295.96275641 496.42393046 295.96275641 496.42870498 294.25584841 C496.43670525 290.50482232 496.43035334 286.75395709 496.42407227 283.00292969 C496.42678123 280.31920393 496.43026906 277.63548939 496.43469238 274.95176697 C496.4435934 268.41104243 496.44166122 261.87036375 496.4358671 255.32963741 C496.4313534 250.01464071 496.43073644 244.69965688 496.43291473 239.38465881 C496.4332212 238.62868205 496.43352767 237.87270528 496.43384342 237.09382012 C496.43448286 235.55814818 496.43513129 234.02247624 496.4357886 232.48680431 C496.44149397 218.08114859 496.43493076 203.67551831 496.42418787 189.26986676 C496.41525217 176.90467057 496.41680415 164.53951192 496.42602539 152.17431641 C496.43672437 137.82079497 496.44094463 123.46729583 496.43480086 109.11377096 C496.43416375 107.58369542 496.43353501 106.05361987 496.43291473 104.52354431 C496.43260618 103.77068501 496.43229763 103.0178257 496.43197973 102.24215248 C496.43025167 96.93251211 496.43317028 91.62288587 496.43787384 86.31324768 C496.44347854 79.84404751 496.44197491 73.37489588 496.43131235 66.90570128 C496.42605007 63.60396156 496.42508191 60.30231973 496.43061066 57.00057793 C496.4360482 53.42441658 496.42925359 49.84848542 496.41925049 46.27233887 C496.42594265 44.70056531 496.42594265 44.70056531 496.43277001 43.09703875 C496.42494677 41.66234216 496.42494677 41.66234216 496.41696548 40.1986618 C496.41664078 39.37303977 496.41631608 38.54741775 496.41598153 37.69677687 C496.13320503 35.16713946 495.5320552 33.59535368 494.1652832 31.45410156 C490.08994658 28.89772306 486.94019286 28.07695378 482.16677856 28.05537415 C480.98896317 28.042836 479.81114777 28.03029785 478.59764099 28.01737976 C477.31945999 28.01881485 476.04127899 28.02024994 474.72436523 28.02172852 C473.35403055 28.01270475 471.98370394 28.00237602 470.61338806 27.99084473 C466.90516247 27.96332044 463.19709022 27.95399649 459.48877573 27.94799066 C455.6089819 27.93859502 451.72930207 27.91239069 447.84957886 27.88798523 C440.50807131 27.84434918 433.16658593 27.81578448 425.82498825 27.79266185 C417.4646039 27.76559462 409.10433442 27.72168407 400.74403214 27.67637312 C383.55116202 27.58356826 366.35830389 27.51409186 349.1652832 27.45410156 C347.1852832 18.54410156 345.2052832 9.63410156 343.1652832 0.45410156 C362.55015205 0.36369679 381.93484936 0.29005887 401.31987572 0.24685287 C410.32131896 0.22625554 419.32262162 0.19818922 428.32397461 0.15234375 C436.17246906 0.11238915 444.02086165 0.0866482 451.86945498 0.07774758 C456.02262972 0.07254738 460.17551313 0.06038453 464.32859421 0.03118134 C468.24383377 0.00387563 472.15866413 -0.00431314 476.07398987 0.00167084 C477.50498814 0.00057733 478.9360012 -0.00728614 480.36691666 -0.02272034 C492.90907494 -0.15127949 502.0913689 2.26442655 511.6652832 10.64160156 C520.9715315 21.1111309 523.63727471 31.43301013 523.539505 45.27702332 C523.54347941 46.41600502 523.54745382 47.55498672 523.55154866 48.72848302 C523.56111786 52.51760478 523.54938591 56.30634813 523.53759766 60.09545898 C523.53836967 62.82298868 523.54363251 65.55050567 523.54866028 68.2780304 C523.55811514 74.90004225 523.55157811 81.5219446 523.53939734 88.14394828 C523.52573192 95.86232663 523.52741912 103.58067932 523.52953067 111.2990667 C523.53271555 125.0723657 523.52108041 138.84561286 523.50146484 152.61889648 C523.48245172 165.97275368 523.47538083 179.32655016 523.48095703 192.68041992 C523.48701855 207.23949148 523.48683176 221.7985364 523.4754712 236.35760576 C523.47426396 237.91067366 523.47305797 239.46374156 523.47185326 241.01680946 C523.47094795 242.1628876 523.47094795 242.1628876 523.47002435 243.33211884 C523.46615032 248.70808644 523.46653678 254.08404411 523.4684391 259.46001244 C523.4705639 266.01201018 523.46531512 272.56395486 523.45082555 279.11593767 C523.44359615 282.45671172 523.44056665 285.797344 523.44406891 289.138134 C523.44729239 292.762885 523.43820437 296.38740363 523.42597961 300.01213074 C523.42975894 301.06300831 523.43353826 302.11388589 523.43743211 303.19660825 C523.37142731 314.25961281 520.75183928 324.66753841 513.2277832 333.14160156 C501.15398927 343.70353225 489.44549034 344.46688457 474.1047821 344.32279968 C471.9872054 344.32872488 469.86963544 344.33771201 467.75208312 344.34947616 C461.9631823 344.37278673 456.17513733 344.35270116 450.38628519 344.3251971 C444.13200943 344.3031283 437.87783285 344.32155898 431.62355042 344.33482361 C420.0911273 344.35323537 408.55908589 344.34017755 397.02670767 344.31115509 C386.37453769 344.28454077 375.72246433 344.27227548 365.070261 344.27399635 C364.36271993 344.27409567 363.65517885 344.274195 362.92619714 344.27429733 C360.05385968 344.27473141 357.18152225 344.27524666 354.30918482 344.27587453 C327.38931828 344.28164607 300.46962335 344.24908761 273.54981193 344.19748864 C249.64157404 344.15184986 225.73347531 344.13358737 201.82519531 344.14038086 C200.28926099 344.14080812 198.75332667 344.14123493 197.21739235 344.14166131 C196.07837594 344.14197885 196.07837594 344.14197885 194.91634909 344.14230281 C191.09377491 344.14335798 187.27120073 344.14436292 183.44862652 344.14531231 C182.69446109 344.14550282 181.94029567 344.14569332 181.16327674 344.1458896 C161.17136469 344.1506105 141.17946832 344.13605585 121.18756801 344.11514789 C120.47637734 344.11440748 119.76518666 344.11366706 119.03244476 344.11290421 C118.32256618 344.11216439 117.61268761 344.11142456 116.88129756 344.11066232 C116.17273329 344.10992413 115.46416901 344.10918594 114.73413309 344.10842539 C113.30718925 344.10693033 111.88024543 344.10541852 110.45330163 344.10388986 C100.51049414 344.09335496 90.56770573 344.08975141 80.62489312 344.09077237 C67.81475681 344.09202122 55.00477906 344.07950614 42.19467773 344.04469945 C36.01838007 344.02821816 29.84224741 344.01805332 23.66592789 344.02513123 C18.01283479 344.03139638 12.36009436 344.01919638 6.70706496 343.9922081 C4.66158686 343.9856542 2.61607391 343.98582613 0.57059928 343.99338575 C-2.21011855 344.00263727 -4.98967237 343.98728449 -7.77029896 343.96584606 C-8.56407884 343.97435318 -9.35785871 343.98286031 -10.17569253 343.99162522 C-20.03965612 343.84991458 -28.37376467 338.82466277 -35.4597168 332.20410156 C-38.87895249 328.67919413 -41.03980241 325.0051878 -42.8347168 320.45410156 C-43.17620066 319.65594371 -43.51768452 318.85778585 -43.86951637 318.0354414 C-45.22164865 313.0184055 -45.11703434 308.23721368 -45.10214233 303.06282043 C-45.10667345 301.90980979 -45.11120456 300.75679915 -45.11587298 299.56884879 C-45.12633054 296.37695284 -45.12784497 293.18519886 -45.12548423 289.99329126 C-45.12507553 286.54733 -45.1361204 283.10140216 -45.14559937 279.65545654 C-45.16219978 272.90679008 -45.16770851 266.15815857 -45.16882412 259.4094734 C-45.1697752 253.92152852 -45.1738885 248.43359515 -45.18022537 242.94565392 C-45.19783641 227.37629872 -45.20706465 211.80697107 -45.20556442 196.23760585 C-45.20548451 195.39856848 -45.2054046 194.55953111 -45.20532227 193.69506836 C-45.2052405 192.8550028 -45.20515874 192.01493725 -45.2050745 191.14941516 C-45.204262 177.54190876 -45.22339105 163.93451316 -45.251599 150.3270388 C-45.28035364 136.34514441 -45.29413782 122.36330401 -45.29241145 108.38137931 C-45.29174836 100.53560087 -45.29720478 92.68993853 -45.31876755 84.84418678 C-45.33701351 78.16256855 -45.3412989 71.48111902 -45.3277487 64.79948661 C-45.3212357 61.39349088 -45.32104064 57.98781849 -45.3384552 54.58185387 C-45.35392285 50.88104926 -45.34458794 47.18108775 -45.32919312 43.4803009 C-45.33948024 42.41529651 -45.34976737 41.35029212 -45.36036623 40.25301486 C-45.2535488 28.59290335 -41.22430077 17.75632794 -32.8347168 9.48144531 C-22.91421621 1.13759571 -12.59685962 -0.13813674 0 0 Z " fill="#29313E" transform="translate(272.834716796875,234.5458984375)"/>
<path d="M0 0 C1.73682695 -0.01657153 1.73682695 -0.01657153 3.50874132 -0.03347784 C4.78158324 -0.02523708 6.05442516 -0.01699631 7.36583805 -0.00850582 C8.73104338 -0.01382965 10.09624284 -0.02089439 11.46143109 -0.02955288 C15.21678699 -0.04822935 18.97174988 -0.04185826 22.72712243 -0.03139985 C26.77561893 -0.02442191 30.82403354 -0.04039506 34.87250614 -0.05339718 C42.80526327 -0.07506627 50.7378771 -0.07490283 58.67065411 -0.06677163 C65.11694558 -0.06047778 71.56319518 -0.06160302 78.0094862 -0.06804371 C78.92614519 -0.06894536 79.84280419 -0.06984702 80.78724073 -0.070776 C82.64929295 -0.07262716 84.51134516 -0.07448972 86.37339736 -0.07636356 C103.84457025 -0.09295224 121.31566244 -0.08421383 138.78683049 -0.06737798 C154.77822225 -0.05268088 170.76942612 -0.06730766 186.76079368 -0.09614814 C203.17213508 -0.12552612 219.58338973 -0.13651904 235.99475628 -0.12696594 C237.8503539 -0.12594336 239.70595154 -0.12494876 241.56154919 -0.12398243 C242.93110467 -0.12326784 242.93110467 -0.12326784 244.32832794 -0.12253882 C250.76764729 -0.12037253 257.2068847 -0.13019022 263.64618587 -0.14475346 C271.49259774 -0.16225111 279.33877003 -0.16219654 287.18517237 -0.1394018 C291.18991833 -0.12823593 295.19424181 -0.12514957 299.19896984 -0.14370251 C302.86380742 -0.16046256 306.5278526 -0.15421838 310.1926384 -0.12948572 C312.149224 -0.12226306 314.10585238 -0.13967215 316.06236643 -0.15789706 C325.52956763 -0.0565591 325.52956763 -0.0565591 328.63524818 2.83605385 C330.85904402 6.29391804 330.96947244 8.53719894 330.94617558 12.63506413 C330.94621586 13.30658009 330.94625614 13.97809605 330.94629765 14.66996098 C330.940959 16.08282223 330.92344655 17.49568439 330.89441776 18.90825748 C330.85247402 21.06616544 330.8533592 23.22095683 330.86023808 25.37920475 C330.77117891 37.06830528 330.77117891 37.06830528 327.35242558 40.50615788 C324.85678971 41.00755453 324.85678971 41.00755453 321.81228161 41.00952244 C320.65290463 41.01995343 319.49352764 41.03038442 318.29901803 41.0411315 C316.37954946 41.02774717 316.37954946 41.02774717 314.42130375 41.01409245 C313.05283756 41.01869885 311.68437632 41.02505001 310.31592548 41.03300142 C306.54690027 41.04975455 302.77827833 41.04142154 299.00925136 41.02905655 C294.94779252 41.02003249 290.88640464 41.0339627 286.82495975 41.04497623 C278.86465289 41.0627954 270.90449658 41.05890613 262.94418372 41.04732567 C256.47546327 41.03830367 250.00678512 41.037062 243.53806019 41.04142094 C242.61849034 41.04203387 241.69892049 41.0426468 240.75148489 41.04327831 C238.88355414 41.04455717 237.0156234 41.04585403 235.14769267 41.04716867 C217.61690866 41.05858475 200.08620821 41.04544534 182.55543791 41.02396721 C167.50709373 41.00610124 152.45887299 41.0091942 137.41053104 41.02764225 C119.94693273 41.0490411 102.48340775 41.05747974 85.01979816 41.0451932 C83.15800628 41.04391897 81.29621439 41.04266149 79.43442249 41.04142094 C78.06027837 41.04049528 78.06027837 41.04049528 76.65837375 41.03955093 C70.19704011 41.03609463 63.73575291 41.04193253 57.27442646 41.05133915 C49.40056575 41.06254984 41.52686458 41.05953898 33.65302218 41.03821617 C29.63416378 41.02769224 25.6155715 41.02360652 21.59671497 41.03681278 C17.91897927 41.04871539 14.24175683 41.04220997 10.56406783 41.02090257 C8.6004847 41.01430405 6.63686607 41.02739191 4.67331994 41.0411315 C3.50872746 41.03070051 2.34413498 41.02026952 1.14425182 41.00952244 C0.13923945 41.00887303 -0.86577293 41.00822362 -1.90124023 41.00755453 C-5.43734897 40.36196919 -7.12517721 39.02750406 -9.64757442 36.50615788 C-10.27867794 33.17803288 -10.27867794 33.17803288 -10.27648067 29.25615788 C-10.27889263 28.56103092 -10.28130459 27.86590397 -10.28378963 27.14971256 C-10.28281257 25.68383407 -10.26945193 24.21791804 -10.24449825 22.75225163 C-10.21017456 20.51269128 -10.22384281 18.27707662 -10.24327755 16.03740788 C-10.23637875 14.6103078 -10.22670604 13.18321789 -10.21398067 11.75615788 C-10.20310421 10.46193913 -10.19222775 9.16772038 -10.18102169 7.83428288 C-9.19907709 1.70802716 -5.91081805 0.0070337 0 0 Z " fill="#29313E" transform="translate(352.64757442474365,485.49384212493896)"/>
<path d="M0 0 C11.40722119 9.56389973 19.96394828 22.65932748 21.93359375 37.625 C22.2779316 43.06467538 22.37420751 48.48794892 22.37109375 53.9375 C22.37149658 54.63897156 22.37189941 55.34044312 22.37231445 56.06317139 C22.33171958 68.02781126 22.33171958 68.02781126 19.93359375 71.625 C17.94673252 72.00252342 17.94673252 72.00252342 15.46131897 72.00595093 C14.52051987 72.0144104 13.57972076 72.02286987 12.6104126 72.03158569 C11.57503357 72.025513 10.53965454 72.01944031 9.47290039 72.01318359 C7.84109077 72.02106903 7.84109077 72.02106903 6.17631531 72.02911377 C2.56531592 72.04236229 -1.0452458 72.03355768 -4.65625 72.0234375 C-7.1572732 72.02545698 -9.65829584 72.02836736 -12.15931702 72.03213501 C-17.40760801 72.03656506 -22.65578435 72.03039036 -27.90405273 72.01611328 C-33.97304783 71.99979426 -40.04174047 72.0050678 -46.1107282 72.0215925 C-51.94560962 72.03684445 -57.78037601 72.03523283 -63.6152668 72.0264473 C-66.09964604 72.0244418 -68.58403297 72.02691676 -71.06840324 72.03388596 C-74.53791797 72.04148118 -78.00684737 72.02992225 -81.47631836 72.01318359 C-82.50967316 72.01925629 -83.54302795 72.02532898 -84.60769653 72.03158569 C-85.55131546 72.02312622 -86.49493439 72.01466675 -87.46714783 72.00595093 C-88.28771132 72.00481985 -89.10827482 72.00368877 -89.95370388 72.00252342 C-92.58433417 71.53245032 -93.47012353 70.73547086 -95.06640625 68.625 C-95.47045898 66.05981445 -95.47045898 66.05981445 -95.5 62.98828125 C-95.51144043 61.86107666 -95.52288086 60.73387207 -95.53466797 59.57250977 C-95.5245166 58.37295654 -95.51436523 57.17340332 -95.50390625 55.9375 C-95.49633301 54.71538818 -95.48875977 53.49327637 -95.48095703 52.23413086 C-95.14412784 33.66795841 -90.17916928 17.72534623 -76.92578125 4.3203125 C-55.17134871 -16.18591489 -23.90804979 -18.51731754 0 0 Z " fill="#FFFFFF" transform="translate(549.06640625,224.375)"/>
<path d="M0 0 C28.71 0 57.42 0 87 0 C99 22 99 22 104 32 C104.64066406 30.77925781 105.28132813 29.55851563 105.94140625 28.30078125 C110.91123874 18.83961428 115.91349483 9.39897694 121 0 C127.27 0 133.54 0 140 0 C134.61073703 10.98580529 128.92491818 21.75959187 123.02734375 32.48046875 C122.54644287 33.37789795 122.06554199 34.27532715 121.57006836 35.19995117 C120 38 120 38 118.10375977 40.87231445 C111.96750986 50.68765622 111.98493695 59.51273298 112.0625 70.8125 C112.04936088 72.58401042 112.03310608 74.35550058 112.01367188 76.12695312 C111.96751339 80.41969235 111.98505087 84.7053288 112 89 C105.07 89 98.14 89 91 89 C91.13664062 86.65132812 91.27328125 84.30265625 91.4140625 81.8828125 C92.35063025 57.60158235 87.23879971 41.15403589 74.33154297 20.73046875 C70.67711594 14.94223334 67.36853712 8.95764183 64 3 C63.67 7.95 63.34 12.9 63 18 C49.14 18 35.28 18 21 18 C21 23.94 21 29.88 21 36 C31.89 36 42.78 36 54 36 C54 41.94 54 47.88 54 54 C43.11 54 32.22 54 21 54 C21 59.61 21 65.22 21 71 C34.86 71 48.72 71 63 71 C63 76.94 63 82.88 63 89 C42.21 89 21.42 89 0 89 C0 59.63 0 30.26 0 0 Z " fill="#29313E" transform="translate(286,636)"/>
<path d="M0 0 C8.04375 -0.061875 16.0875 -0.12375 24.375 -0.1875 C26.89431152 -0.21481201 29.41362305 -0.24212402 32.00927734 -0.27026367 C34.03482587 -0.27903604 36.06037974 -0.2866782 38.0859375 -0.29296875 C39.11436768 -0.30831665 40.14279785 -0.32366455 41.20239258 -0.33947754 C50.46112979 -0.34278817 58.69012428 0.88690637 65.59765625 7.453125 C70.51426995 12.8764649 71.37789965 18.30936405 71.2734375 25.40234375 C70.75282007 30.34820936 68.96737099 34.20253832 65.28125 37.5703125 C62.54762287 39.59736651 60.2472984 40.9175672 57 42 C57.59167969 42.36351562 58.18335938 42.72703125 58.79296875 43.1015625 C64.79020633 46.91709701 69.23918223 50.22681906 72.3125 56.8125 C73.8702284 64.03469529 73.47122899 70.406059 70 77 C65.17353879 83.97155508 59.61702012 86.91179724 51.58963013 88.60296631 C46.87010365 89.3265488 42.16676036 89.24348581 37.40234375 89.1953125 C36.44815552 89.19329834 35.49396729 89.19128418 34.51086426 89.18920898 C30.98635978 89.17883744 27.46192446 89.15091573 23.9375 89.125 C16.038125 89.08375 8.13875 89.0425 0 89 C0 59.63 0 30.26 0 0 Z " fill="#29313E" transform="translate(431,636)"/>
<path d="M0 0 C48.41935484 0 48.41935484 0 59.93359375 10.81640625 C69.99259585 21.52437623 72.61877658 33.72384554 72.24609375 47.99609375 C71.77032181 57.95416611 68.67797383 65.87612975 63 74 C62.2575 75.0725 61.515 76.145 60.75 77.25 C54.01621571 83.98378429 47.17512253 86.24746324 38 89 C25.46 89 12.92 89 0 89 C0 59.63 0 30.26 0 0 Z " fill="#29313E" transform="translate(771,636)"/>
<path d="M0 0 C10.30688178 7.15052101 16.23566963 18.90308051 18.53515625 31.0859375 C20.22425465 47.06199324 18.65158402 62.81532119 9.06640625 76.1875 C3.43678775 83.07697265 -3.31054761 87.40575445 -12.18359375 88.74609375 C-23.61860311 89.52541287 -33.11115234 88.43113281 -42.08203125 80.88671875 C-52.86307868 69.90528011 -56.48360901 55.58055867 -56.49829102 40.63427734 C-56.23837913 26.18071592 -51.99010509 13.14988559 -41.49609375 2.80859375 C-30.07906636 -6.32502816 -12.59806388 -7.2343086 0 0 Z " fill="#29313E" transform="translate(570.18359375,638.25390625)"/>
<path d="M0 0 C7.569375 -0.04125 15.13875 -0.0825 22.9375 -0.125 C25.30929443 -0.14320801 27.68108887 -0.16141602 30.12475586 -0.18017578 C32.02978286 -0.18602354 33.93481239 -0.19111843 35.83984375 -0.1953125 C36.8086145 -0.20554443 37.77738525 -0.21577637 38.7755127 -0.22631836 C48.38376174 -0.22875484 56.34234983 0.67515278 63.59375 7.5 C69.10379681 13.33416721 71.0934359 19.55322913 71.4375 27.5 C71.20820805 34.06692145 69.57532551 39.19247301 65.09375 44.078125 C61.79527382 47.10583074 59.39054137 49.02127515 55 50 C55.30180176 50.648479 55.60360352 51.29695801 55.91455078 51.96508789 C61.59681698 64.19939913 67.14804279 76.41113805 72 89 C64.74 89 57.48 89 50 89 C44.40692911 78.24409445 39.7050083 67.16655302 35 56 C28.07 55.505 28.07 55.505 21 55 C21 66.22 21 77.44 21 89 C14.07 89 7.14 89 0 89 C0 59.63 0 30.26 0 0 Z " fill="#29313E" transform="translate(720,804)"/>
<path d="M0 0 C7.569375 -0.04125 15.13875 -0.0825 22.9375 -0.125 C25.30929443 -0.14320801 27.68108887 -0.16141602 30.12475586 -0.18017578 C32.02978286 -0.18602354 33.93481239 -0.19111843 35.83984375 -0.1953125 C36.8086145 -0.20554443 37.77738525 -0.21577637 38.7755127 -0.22631836 C48.38376174 -0.22875484 56.34234983 0.67515278 63.59375 7.5 C69.10379681 13.33416721 71.0934359 19.55322913 71.4375 27.5 C71.20820805 34.06692145 69.57532551 39.19247301 65.09375 44.078125 C61.79527382 47.10583074 59.39054137 49.02127515 55 50 C55.30180176 50.648479 55.60360352 51.29695801 55.91455078 51.96508789 C61.59681698 64.19939913 67.14804279 76.41113805 72 89 C64.74 89 57.48 89 50 89 C44.40692911 78.24409445 39.7050083 67.16655302 35 56 C28.07 55.505 28.07 55.505 21 55 C21 66.22 21 77.44 21 89 C14.07 89 7.14 89 0 89 C0 59.63 0 30.26 0 0 Z " fill="#29313E" transform="translate(684,636)"/>
<path d="M0 0 C8.25 0 16.5 0 25 0 C33.25 16.5 41.5 33 50 50 C50.33 33.5 50.66 17 51 0 C56.61 0 62.22 0 68 0 C68 29.37 68 58.74 68 89 C61.07 89 54.14 89 47 89 C45.74445312 86.47730469 44.48890625 83.95460938 43.1953125 81.35546875 C41.94126193 78.83950926 40.68648331 76.32391411 39.43164062 73.80834961 C38.57769413 72.09551036 37.72447285 70.38230931 36.87207031 68.66870117 C35.62768904 66.16743598 34.38046438 63.66760388 33.1328125 61.16796875 C32.58682907 60.06825996 32.58682907 60.06825996 32.02981567 58.94633484 C27.49894409 49.88369023 22.72241712 40.97259252 18 32 C17.67 50.81 17.34 69.62 17 89 C11.39 89 5.78 89 0 89 C0 59.63 0 30.26 0 0 Z " fill="#29313E" transform="translate(558,804)"/>
<path d="M0 0 C0.86032837 -0.0049649 1.72065674 -0.00992981 2.60705566 -0.01504517 C5.4615966 -0.02968522 8.31608194 -0.03647217 11.1706543 -0.04199219 C13.15121971 -0.04774252 15.1317851 -0.05350027 17.11235046 -0.05926514 C21.26940165 -0.06978064 25.42643347 -0.07561958 29.58349609 -0.07910156 C34.91006386 -0.0845847 40.2363758 -0.10860662 45.56286335 -0.13707352 C49.65580492 -0.1556992 53.7486849 -0.16090548 57.84166527 -0.16243744 C59.80526311 -0.16546511 61.76885984 -0.17349746 63.73241615 -0.18662262 C66.48066263 -0.20368012 69.22828454 -0.20180349 71.9765625 -0.1953125 C73.19320839 -0.20913467 73.19320839 -0.20913467 74.43443298 -0.22323608 C79.00385945 -0.18943376 82.10618548 0.21068412 85.68237305 3.16113281 C87.41941999 8.37227365 86.94736757 13.95623872 86.97753906 19.41235352 C86.98908164 20.86818137 87.00956972 22.32396616 87.0390625 23.77954102 C87.08171766 25.88489482 87.09790127 27.98899448 87.1081543 30.09472656 C87.12273682 31.35341553 87.13731934 32.61210449 87.15234375 33.90893555 C86.68237305 37.16113281 86.68237305 37.16113281 85.20524597 39.33303833 C81.58146699 41.9588584 78.15387362 41.71244166 73.84643555 41.6628418 C72.95494812 41.66824478 72.06346069 41.67364777 71.1449585 41.67921448 C68.19875874 41.69171957 65.25353279 41.67519885 62.30737305 41.65722656 C60.26000924 41.65738151 58.21264514 41.65886976 56.1652832 41.66163635 C51.87462394 41.66302115 47.58429863 41.65044868 43.29370117 41.62768555 C37.79215658 41.59930085 32.29116696 41.60203725 26.7895813 41.61477566 C22.56196345 41.62172858 18.33447401 41.61394794 14.10687256 41.60151863 C12.07827242 41.59700038 10.04965852 41.59667058 8.02105713 41.60058403 C5.18652052 41.60349243 2.35275035 41.58700691 -0.48168945 41.56518555 C-1.32129211 41.56968719 -2.16089478 41.57418884 -3.02593994 41.5788269 C-6.35136251 41.53626264 -8.84761779 41.41367113 -11.80737305 39.82337952 C-15.82026779 35.4066248 -14.57961235 28.40451449 -14.61279297 22.81933594 C-14.62431934 21.46734151 -14.64478218 20.11539282 -14.67431641 18.76367188 C-14.71708612 16.80534461 -14.73057364 14.84644751 -14.7434082 12.88769531 C-14.75799072 11.71803223 -14.77257324 10.54836914 -14.78759766 9.34326172 C-14.22282744 5.51925394 -12.9947601 3.8940201 -10.31762695 1.16113281 C-7.08691469 -0.45422332 -3.54996299 0.00485622 0 0 Z " fill="#29313E" transform="translate(655.317626953125,420.8388671875)"/>
<path d="M0 0 C8.25 0 16.5 0 25 0 C26.85723116 4.95261642 28.59361932 9.72464907 30.11303711 14.76049805 C30.30212143 15.38452011 30.49120575 16.00854218 30.6860199 16.651474 C31.30228859 18.68747796 31.91483109 20.72458201 32.52734375 22.76171875 C32.96163728 24.19895087 33.3961766 25.63610874 33.83094788 27.07319641 C34.97098159 30.84365188 36.10789812 34.6150399 37.24407959 38.38665771 C38.61490035 42.93518602 39.98930108 47.48263352 41.36325169 52.03021717 C42.43458843 55.57639656 43.50540517 59.12272967 44.57444763 62.66960144 C44.87053342 63.65132938 44.87053342 63.65132938 45.17260075 64.65289021 C45.74416992 66.54810268 46.31543276 68.44340754 46.88668823 70.3387146 C48.32515032 75.06930347 49.80211323 79.78761965 51.28883362 84.50325012 C52 87 52 87 52 89 C44.74 89 37.48 89 30 89 C27.77930037 83.07813432 25.8173476 77.05782533 24 71 C10.14 70.505 10.14 70.505 -4 70 C-4.99 73.96 -5.98 77.92 -7 82 C-7.99 84.31 -8.98 86.62 -10 89 C-15.94 89 -21.88 89 -28 89 C-25.89562998 81.06754354 -23.54594343 73.25527756 -21.015625 65.44921875 C-20.63694275 64.27398148 -20.2582605 63.0987442 -19.86810303 61.88789368 C-18.66437827 58.15367934 -17.45731845 54.42055381 -16.25 50.6875 C-15.06154237 47.00546423 -13.87378879 43.32320195 -12.68615723 39.64089966 C-11.91031415 37.23543418 -11.13419437 34.83005792 -10.35778809 32.42477417 C-6.87395059 21.62635019 -3.43215504 10.81495912 0 0 Z " fill="#29313E" transform="translate(496,804)"/>
<path d="M0 0 C8.25 0 16.5 0 25 0 C26.85723116 4.95261642 28.59361932 9.72464907 30.11303711 14.76049805 C30.30212143 15.38452011 30.49120575 16.00854218 30.6860199 16.651474 C31.30228859 18.68747796 31.91483109 20.72458201 32.52734375 22.76171875 C32.96163728 24.19895087 33.3961766 25.63610874 33.83094788 27.07319641 C34.97098159 30.84365188 36.10789812 34.6150399 37.24407959 38.38665771 C38.61490035 42.93518602 39.98930108 47.48263352 41.36325169 52.03021717 C42.43458843 55.57639656 43.50540517 59.12272967 44.57444763 62.66960144 C44.87053342 63.65132938 44.87053342 63.65132938 45.17260075 64.65289021 C45.74416992 66.54810268 46.31543276 68.44340754 46.88668823 70.3387146 C48.32515032 75.06930347 49.80211323 79.78761965 51.28883362 84.50325012 C52 87 52 87 52 89 C44.74 89 37.48 89 30 89 C27.77930037 83.07813432 25.8173476 77.05782533 24 71 C10.14 70.505 10.14 70.505 -4 70 C-4.99 73.96 -5.98 77.92 -7 82 C-7.99 84.31 -8.98 86.62 -10 89 C-15.94 89 -21.88 89 -28 89 C-25.89562998 81.06754354 -23.54594343 73.25527756 -21.015625 65.44921875 C-20.63694275 64.27398148 -20.2582605 63.0987442 -19.86810303 61.88789368 C-18.66437827 58.15367934 -17.45731845 54.42055381 -16.25 50.6875 C-15.06154237 47.00546423 -13.87378879 43.32320195 -12.68615723 39.64089966 C-11.91031415 37.23543418 -11.13419437 34.83005792 -10.35778809 32.42477417 C-6.87395059 21.62635019 -3.43215504 10.81495912 0 0 Z " fill="#29313E" transform="translate(622,636)"/>
<path d="M0 0 C6.93 0 13.86 0 21 0 C21.33 12.87 21.66 25.74 22 39 C29.16443744 28.31284464 29.16443744 28.31284464 35.7734375 17.28515625 C44.86586689 1.25376759 44.86586689 1.25376759 50.67675781 -1.07080078 C56.62853713 -2.05792009 62.15349735 -1.29389813 68 0 C62.63661282 8.63999573 56.9235515 17.01324405 51.12573242 25.36523438 C48.70527911 28.46700147 48.70527911 28.46700147 48.15185547 32.18847656 C49.29019678 35.96197642 50.88972915 39.42466666 52.5703125 42.984375 C52.9296286 43.75823547 53.2889447 44.53209595 53.65914917 45.32940674 C54.8093319 47.80535174 55.96650599 50.27793418 57.125 52.75 C62.72698044 64.72507397 68.05070362 76.73834797 73 89 C65.41 89 57.82 89 50 89 C47.71785071 84.05364518 45.43801829 79.10635784 43.1640625 74.15625 C42.38937981 72.4717051 41.61334242 70.78778253 40.8359375 69.10449219 C39.7204096 66.68846364 38.60973172 64.27025777 37.5 61.8515625 C37.15001953 61.0963028 36.80003906 60.34104309 36.43945312 59.56289673 C34 54.22774341 34 54.22774341 34 52 C25.25223185 60.51187328 21.3266874 67.04582485 21 79.25 C21 82.4675 21 85.685 21 89 C14.07 89 7.14 89 0 89 C0 59.63 0 30.26 0 0 Z " fill="#29313E" transform="translate(202,636)"/>
<path d="M0 0 C0.8737326 -0.00554901 1.74746521 -0.01109802 2.64767456 -0.01681519 C5.5285366 -0.02860257 8.40782282 -0.00434967 11.28857422 0.02148438 C13.29206266 0.02319548 15.29555335 0.0231298 17.29904175 0.0213623 C21.49385042 0.02301492 25.68812427 0.04170549 29.8828125 0.07324219 C35.26450161 0.11297073 40.64549191 0.11728117 46.02729988 0.10977936 C50.16224593 0.1067132 54.29703429 0.11881672 58.43194199 0.13591003 C60.4167062 0.14294899 62.40148828 0.14606349 64.3862648 0.1452179 C67.15627756 0.14701157 69.92544546 0.16835461 72.6953125 0.1953125 C73.51823792 0.1923819 74.34116333 0.18945129 75.18902588 0.18643188 C80.76424097 0.2703352 80.76424097 0.2703352 82.92799187 1.91403961 C85.11728501 4.80057844 84.64430403 8.23223523 84.61669922 11.71289062 C84.6195694 12.50296005 84.62243958 13.29302948 84.62539673 14.10704041 C84.62743671 15.77555051 84.62191138 17.44408457 84.609375 19.11254883 C84.59329819 21.67192763 84.6092359 24.2297324 84.62841797 26.7890625 C84.62643594 28.4095087 84.62259311 30.02995393 84.61669922 31.65039062 C84.62277191 32.41811295 84.6288446 33.18583527 84.63510132 33.9768219 C84.60644531 36.13110352 84.60644531 36.13110352 84.21826172 39.61523438 C80.3807824 42.17355392 77.23661343 41.91071874 72.78710938 41.90576172 C71.92663498 41.91247894 71.06616058 41.91919617 70.17961121 41.92611694 C67.33045706 41.94513994 64.48153795 41.94902334 61.63232422 41.95117188 C59.65318708 41.95759697 57.6740509 41.96432511 55.69491577 41.97134399 C51.54382119 41.98332764 47.39280989 41.98702372 43.24169922 41.98583984 C37.92289896 41.98563663 32.60463289 42.01293648 27.28595924 42.04738426 C23.19729155 42.06962412 19.10875297 42.07367827 15.02003098 42.07262039 C13.05921971 42.07498083 11.09840512 42.08382922 9.13765335 42.09928513 C6.39412313 42.11888551 3.65175209 42.11313054 0.90820312 42.10107422 C-0.3060862 42.11793274 -0.3060862 42.11793274 -1.54490662 42.13513184 C-5.334412 42.09282391 -7.53735843 41.77145442 -10.76235962 39.70986938 C-15.22641966 35.07944685 -14.07957623 28.99011248 -14.13183594 22.92163086 C-14.14837636 21.51423586 -14.17564221 20.10692421 -14.21386719 18.69995117 C-14.26884002 16.66476143 -14.29053705 14.63153679 -14.30517578 12.59570312 C-14.32499512 11.37778076 -14.34481445 10.1598584 -14.36523438 8.9050293 C-12.90528658 0.67373367 -7.11868508 -0.11530043 0 0 Z " fill="#29313E" transform="translate(295.78173828125,357.384765625)"/>
<path d="M0 0 C20.79 0 41.58 0 63 0 C63 5.94 63 11.88 63 18 C49.14 18 35.28 18 21 18 C21 23.94 21 29.88 21 36 C31.89 36 42.78 36 54 36 C54 41.94 54 47.88 54 54 C43.11 54 32.22 54 21 54 C21 59.61 21 65.22 21 71 C34.86 71 48.72 71 63 71 C63 76.94 63 82.88 63 89 C42.21 89 21.42 89 0 89 C0 59.63 0 30.26 0 0 Z " fill="#29313E" transform="translate(644,804)"/>
<path d="M0 0 C20.79 0 41.58 0 63 0 C63 5.94 63 11.88 63 18 C49.14 18 35.28 18 21 18 C21 23.94 21 29.88 21 36 C31.89 36 42.78 36 54 36 C54 41.94 54 47.88 54 54 C43.11 54 32.22 54 21 54 C21 59.61 21 65.22 21 71 C34.86 71 48.72 71 63 71 C63 76.94 63 82.88 63 89 C42.21 89 21.42 89 0 89 C0 59.63 0 30.26 0 0 Z " fill="#29313E" transform="translate(401,804)"/>
<path d="M0 0 C4.95879228 3.99147141 7.64003522 9.35760565 9.625 15.3125 C10.40540352 22.78636448 9.29188778 29.48119642 4.9609375 35.703125 C0.5443887 41.01706021 -4.11704217 44.42978331 -10.375 47.3125 C-9.58941343 56.24574161 -7.03174961 64.75838504 -4.7265625 73.3984375 C-4.41203125 74.61273438 -4.0975 75.82703125 -3.7734375 77.078125 C-3.48130371 78.17930664 -3.18916992 79.28048828 -2.88818359 80.41503906 C-2.38938369 83.23128895 -2.16154227 84.73637092 -3.375 87.3125 C-13.42724378 92.25044431 -26.12408867 91.52312444 -36.65234375 88.359375 C-38.375 87.3125 -38.375 87.3125 -39.07006836 85.63671875 C-39.48209872 82.49618309 -38.78806423 80.13703446 -37.9765625 77.078125 C-37.66203125 75.86382812 -37.3475 74.64953125 -37.0234375 73.3984375 C-36.68570312 72.13257813 -36.34796875 70.86671875 -36 69.5625 C-33.04709631 58.55739697 -33.04709631 58.55739697 -31.375 47.3125 C-32.02726562 46.96058594 -32.67953125 46.60867188 -33.3515625 46.24609375 C-41.13550018 41.84897261 -47.22425394 36.93559448 -50.375 28.3125 C-51.8141417 21.16141606 -51.91860911 14.82069712 -48.375 8.3125 C-43.25008178 0.83355237 -36.74832334 -4.15116234 -27.86328125 -6.29296875 C-17.60430012 -7.91958899 -8.64303816 -5.83242613 0 0 Z " fill="#FFFFFF" transform="translate(533.375,346.6875)"/>
<path d="M0 0 C8.50378369 5.16558096 12.84626216 14.10503649 15.375 23.5 C16 27 16 27 16 31 C8.74 31.33 1.48 31.66 -6 32 C-6.5878125 29.1846875 -6.5878125 29.1846875 -7.1875 26.3125 C-8.50356284 20.99811293 -9.62141666 18.25586966 -14 15 C-17.22586369 13.38706815 -20.50263358 13.55630426 -24 14 C-29.30718324 16.34740797 -31.09141149 19.45881395 -33.23828125 24.5859375 C-35.13920481 30.61040292 -35.18282832 36.5571158 -35.1875 42.8125 C-35.20586914 44.08963867 -35.20586914 44.08963867 -35.22460938 45.39257812 C-35.24366379 53.73206202 -34.5061565 61.3926122 -29 68 C-25.31321906 71.16009795 -21.91712271 71.53919467 -17.2109375 71.3359375 C-13.52906777 70.77650146 -11.68620568 69.56126588 -9 67 C-6.8400941 63.16478247 -5.38832757 59.1649827 -4 55 C2.6 55.33 9.2 55.66 16 56 C14.7654571 65.87634318 11.89009121 75.03315722 4.03125 81.66015625 C-5.25120273 88.31149122 -14.70960248 90.01377493 -26 89 C-36.07385833 87.16709771 -44.60065897 81.99526471 -51 74 C-59.90706209 60.31353874 -61.00602269 42.81738752 -57.875 27.125 C-54.99999198 16.41392361 -49.45948527 6.77806418 -39.95703125 0.69140625 C-27.51106929 -5.88063943 -12.65243945 -6.24236703 0 0 Z " fill="#29313E" transform="translate(306,806)"/>
<path d="M0 0 C6.93 0 13.86 0 21 0 C21 23.43 21 46.86 21 71 C32.55 71 44.1 71 56 71 C56 76.94 56 82.88 56 89 C37.52 89 19.04 89 0 89 C0 59.63 0 30.26 0 0 Z " fill="#29313E" transform="translate(334,804)"/>
<path d="M0 0 C1.40056014 -0.0165191 2.80103737 -0.04375655 4.20117188 -0.08203125 C17.32393678 -0.43862812 17.32393678 -0.43862812 21.25195312 2.62353516 C25.41164328 8.00031984 24.61274252 14.176721 24.67382812 20.72509766 C24.70283203 21.75376953 24.73183594 22.78244141 24.76171875 23.84228516 C24.81336581 30.00814964 24.56073716 33.70426496 20.36132812 38.35009766 C15.59638705 41.52672504 10.16377439 40.72200762 4.59228516 40.72070312 C2.50014375 40.72506883 0.41012651 40.76137387 -1.68164062 40.79931641 C-3.01887303 40.80518665 -4.35611541 40.80915465 -5.69335938 40.81103516 C-6.90491699 40.81925293 -8.11647461 40.8274707 -9.36474609 40.8359375 C-13.2615599 40.25766312 -14.89589146 39.13188986 -17.63867188 36.35009766 C-19.39461002 31.08228321 -18.90818487 25.48889758 -18.95117188 19.97509766 C-18.98017578 18.74275391 -19.00917969 17.51041016 -19.0390625 16.24072266 C-19.04744141 15.05220703 -19.05582031 13.86369141 -19.06445312 12.63916016 C-19.07903564 11.55328613 -19.09361816 10.46741211 -19.10864258 9.34863281 C-18.52918708 5.65155622 -17.21362958 4.01223543 -14.63867188 1.35009766 C-10.36363212 -0.78742222 -4.74326441 0.04096657 0 0 Z " fill="#29313E" transform="translate(299.638671875,485.64990234375)"/>
<path d="M0 0 C1.31484375 -0.00644531 2.6296875 -0.01289063 3.984375 -0.01953125 C5.0043457 -0.0038208 5.0043457 -0.0038208 6.04492188 0.01220703 C8.12034681 0.03900242 10.19036676 0.01243363 12.265625 -0.01953125 C14.23789062 -0.00986328 14.23789062 -0.00986328 16.25 0 C17.44882812 0.00563965 18.64765625 0.0112793 19.8828125 0.01708984 C24.13425917 0.86545834 25.59027918 2.17482467 28.125 5.6640625 C28.75610352 9.01391602 28.75610352 9.01391602 28.75390625 12.79296875 C28.75631821 13.46448471 28.75873016 14.13600067 28.76121521 14.8278656 C28.76023991 16.24069147 28.74692141 17.65355706 28.72192383 19.06616211 C28.68753339 21.22446684 28.70129332 23.37868993 28.72070312 25.53710938 C28.71380581 26.91407986 28.70413443 28.29103982 28.69140625 29.66796875 C28.68052979 30.91392822 28.66965332 32.1598877 28.65844727 33.44360352 C28.03523671 37.20596987 27.09192619 38.35645324 24.125 40.6640625 C19.58106423 42.93603039 13.30109176 41.89421728 8.3125 41.9140625 C6.38567383 41.945 6.38567383 41.945 4.41992188 41.9765625 C3.18177734 41.98171875 1.94363281 41.986875 0.66796875 41.9921875 C-1.0332312 42.00620605 -1.0332312 42.00620605 -2.76879883 42.02050781 C-6.23100337 41.62321011 -8.09795491 40.73307285 -10.875 38.6640625 C-13.06911207 34.27583837 -12.18451422 28.41706372 -12.22509766 23.54321289 C-12.24164004 22.08732092 -12.26890836 20.6315096 -12.30712891 19.17602539 C-12.36208123 17.07135127 -12.38379616 14.96857743 -12.3984375 12.86328125 C-12.41825684 11.60346436 -12.43807617 10.34364746 -12.45849609 9.0456543 C-11.21333985 1.82947894 -6.81245139 0.03204782 0 0 Z " fill="#29313E" transform="translate(653.875,292.3359375)"/>
<path d="M0 0 C2.15849528 0.04732151 4.31206282 0.04110235 6.47094727 0.02783203 C16.90252313 0.11231543 16.90252313 0.11231543 19.97265625 2.58496094 C23.95343569 7.69772408 22.8221358 13.74661213 22.84790039 19.98486328 C22.86852539 21.22171875 22.88915039 22.45857422 22.91040039 23.73291016 C22.91813477 25.52245117 22.91813477 25.52245117 22.92602539 27.34814453 C22.94004395 28.98650269 22.94004395 28.98650269 22.9543457 30.65795898 C22.54834407 34.09145361 21.65717158 35.91792219 19.59790039 38.67236328 C14.87148571 41.8233064 9.8185374 41.04431755 4.25610352 41.04296875 C2.23636039 41.04733419 0.2188183 41.08363904 -1.80053711 41.12158203 C-3.07928711 41.12544922 -4.35803711 41.12931641 -5.67553711 41.13330078 C-7.43003174 41.14562744 -7.43003174 41.14562744 -9.2199707 41.15820312 C-13.03519298 40.5757041 -14.67156365 39.3443922 -17.40209961 36.67236328 C-19.6765043 32.12355391 -18.72227935 25.91599061 -18.77709961 20.92236328 C-18.81448242 19.64619141 -18.85186523 18.37001953 -18.89038086 17.05517578 C-18.98962114 6.49159929 -18.98962114 6.49159929 -16.85131836 2.82080078 C-12.5551031 -1.14306 -5.48747678 -0.12905814 0 0 Z " fill="#29313E" transform="translate(299.402099609375,293.32763671875)"/>
<path d="M0 0 C0.67151596 -0.00478363 1.34303192 -0.00956726 2.03489685 -0.01449585 C3.44768633 -0.01788366 4.8605554 -0.00875917 6.27319336 0.01220703 C8.43195428 0.03904212 10.58553831 0.01241164 12.74414062 -0.01953125 C14.12110518 -0.01622776 15.49806652 -0.00982276 16.875 0 C18.74393921 0.00845947 18.74393921 0.00845947 20.65063477 0.01708984 C23.87109375 0.6640625 23.87109375 0.6640625 26.27294922 2.77587891 C29.04712201 7.78939313 28.50004723 12.97112149 28.44750977 18.58398438 C28.43362642 20.65917921 28.46775554 22.729872 28.50585938 24.8046875 C28.50392578 26.11953125 28.50199219 27.434375 28.5 28.7890625 C28.5007251 29.98789062 28.5014502 31.18671875 28.50219727 32.421875 C27.67449374 36.67406177 26.34823467 38.12353805 22.87109375 40.6640625 C19.62890625 41.31103516 19.62890625 41.31103516 15.99609375 41.328125 C14.68125 41.33457031 13.36640625 41.34101563 12.01171875 41.34765625 C11.33173828 41.33718262 10.65175781 41.32670898 9.95117188 41.31591797 C7.87574694 41.28912258 5.80572699 41.31569137 3.73046875 41.34765625 C1.75820313 41.33798828 1.75820313 41.33798828 -0.25390625 41.328125 C-2.05214844 41.31966553 -2.05214844 41.31966553 -3.88671875 41.31103516 C-8.13037088 40.46422204 -9.58931164 39.13728843 -12.12890625 35.6640625 C-12.77587891 32.421875 -12.77587891 32.421875 -12.79296875 28.7890625 C-12.79941406 27.47421875 -12.80585937 26.159375 -12.8125 24.8046875 C-12.80202637 24.12470703 -12.79155273 23.44472656 -12.78076172 22.74414062 C-12.75396633 20.66871569 -12.78053512 18.59869574 -12.8125 16.5234375 C-12.80283203 14.55117188 -12.80283203 14.55117188 -12.79296875 12.5390625 C-12.7873291 11.34023438 -12.78168945 10.14140625 -12.77587891 8.90625 C-11.33008022 1.66088904 -6.84656154 0.0309619 0 0 Z " fill="#29313E" transform="translate(654.12890625,357.3359375)"/>
<path d="M0 0 C1.26972656 -0.00644531 2.53945313 -0.01289063 3.84765625 -0.01953125 C5.16636719 -0.00019531 6.48507812 0.01914062 7.84375 0.0390625 C9.82181641 0.01005859 9.82181641 0.01005859 11.83984375 -0.01953125 C13.74443359 -0.00986328 13.74443359 -0.00986328 15.6875 0 C16.84443359 0.00563965 18.00136719 0.0112793 19.19335938 0.01708984 C23.38718613 0.87834534 24.83995639 2.21731163 27.34375 5.6640625 C27.95898438 9.12158203 27.95898438 9.12158203 27.9375 13.046875 C27.93754028 13.74295868 27.93758057 14.43904236 27.93762207 15.15621948 C27.93228279 16.620352 27.91476772 18.08448533 27.88574219 19.54833984 C27.84373945 21.78962529 27.84468789 24.02791701 27.8515625 26.26953125 C27.77216147 37.06307042 27.77216147 37.06307042 26.00195312 39.54638672 C20.86709532 43.00742604 13.9568869 41.97105832 8.03125 42.0390625 C6.80728516 42.07644531 5.58332031 42.11382812 4.32226562 42.15234375 C-5.80078482 42.25142744 -5.80078482 42.25142744 -9.46875 40.109375 C-13.46469843 35.82707939 -12.49743209 28.81242245 -12.38354492 23.31689453 C-12.34383894 21.16887413 -12.36284718 19.02702924 -12.38867188 16.87890625 C-12.38111196 15.50518455 -12.37015763 14.13147647 -12.35546875 12.7578125 C-12.34346436 11.51708984 -12.33145996 10.27636719 -12.3190918 8.99804688 C-10.92471254 1.98455031 -6.73100424 0.0328113 0 0 Z " fill="#29313E" transform="translate(714.65625,292.3359375)"/>
<path d="M0 0 C0.67151596 -0.00004028 1.34303192 -0.00008057 2.03489685 -0.00012207 C3.4477581 0.00521657 4.86062026 0.02272902 6.27319336 0.05175781 C8.43110132 0.09370155 10.5858927 0.09281638 12.74414062 0.0859375 C23.11215649 0.16493133 23.11215649 0.16493133 26.24584961 1.93554688 C30.51687055 6.29318158 29.09659669 13.80380467 29.12109375 19.46875 C29.14171875 20.65339844 29.16234375 21.83804687 29.18359375 23.05859375 C29.19132812 24.77369141 29.19132812 24.77369141 29.19921875 26.5234375 C29.2132373 28.08940674 29.2132373 28.08940674 29.22753906 29.68701172 C28.70099449 33.98087453 26.88676821 36.57807554 23.87109375 39.59375 C19.48950437 39.99365979 15.09312837 39.92274755 10.6953125 39.90942383 C8.51120759 39.90627181 6.32846779 39.92968925 4.14453125 39.95507812 C2.75390796 39.95735199 1.36328103 39.95805421 -0.02734375 39.95703125 C-1.29239746 39.96001221 -2.55745117 39.96299316 -3.86083984 39.96606445 C-7.33272772 39.57052964 -8.71747688 39.07392147 -11.12890625 36.59375 C-12.9329924 31.18149156 -12.44153828 25.38289526 -12.50390625 19.71875 C-12.54128906 18.43871094 -12.57867187 17.15867187 -12.6171875 15.83984375 C-12.62878906 14.60621094 -12.64039063 13.37257813 -12.65234375 12.1015625 C-12.67216309 10.97379395 -12.69198242 9.84602539 -12.71240234 8.68408203 C-11.35531273 1.49661743 -6.70410752 -0.03811367 0 0 Z " fill="#29313E" transform="translate(293.12890625,422.40625)"/>
<path d="M0 0 C6.491388 5.08784465 8.15507489 10.84471841 9.3125 18.8125 C10.21720688 30.4203493 11.00966703 44.48385071 3.3125 54 C0.44014992 57.07431219 -1.81294526 57.74771817 -6.0625 58.0625 C-11.01101719 57.72122295 -13.22123951 56.14938456 -16.8125 52.875 C-23.7981886 41.46504196 -23.25389194 24.81457135 -20.5625 12.0625 C-19.08699162 7.05279775 -16.78886318 3.11281568 -12.6875 -0.1875 C-8.21323668 -1.67892111 -4.36835977 -1.93020548 0 0 Z " fill="#FFFFFF" transform="translate(557.6875,652.1875)"/>
<path d="M0 0 C1.46272692 -0.01656285 2.92537278 -0.04385817 4.38769531 -0.08203125 C6.49977447 -0.13685949 8.60996096 -0.15867772 10.72265625 -0.17333984 C11.98770996 -0.19315918 13.25276367 -0.21297852 14.55615234 -0.23339844 C17.82421875 0.35009766 17.82421875 0.35009766 20.24853516 2.42138672 C22.23823788 6.11963182 22.2575744 8.54515779 22.13671875 12.73291016 C22.11834961 13.42899384 22.09998047 14.12507751 22.08105469 14.84225464 C22.03701871 16.30663569 21.98262618 17.77073797 21.91845703 19.234375 C21.82422661 21.47491079 21.77321917 23.71359072 21.7265625 25.95556641 C21.67836022 27.38143717 21.62766457 28.8072263 21.57421875 30.23291016 C21.5278125 31.52600098 21.48140625 32.8190918 21.43359375 34.15136719 C20.82421875 37.35009766 20.82421875 37.35009766 19.203125 39.26782227 C16.03094035 40.71099699 13.49524758 40.75563583 10.01171875 40.78369141 C9.36098389 40.78893326 8.71024902 40.79417511 8.03979492 40.79957581 C6.66814599 40.80598048 5.29644201 40.80467907 3.92480469 40.79614258 C1.83038354 40.78762273 -0.26131622 40.8164224 -2.35546875 40.84814453 C-3.69140544 40.84975658 -5.02734693 40.84917894 -6.36328125 40.84619141 C-8.17892578 40.84897095 -8.17892578 40.84897095 -10.03125 40.85180664 C-13.75542773 40.25761524 -14.88692437 39.27842783 -17.17578125 36.35009766 C-19.44774914 31.80616188 -18.40593603 25.52618942 -18.42578125 20.53759766 C-18.44640625 19.25304687 -18.46703125 17.96849609 -18.48828125 16.64501953 C-18.4934375 15.406875 -18.49859375 14.16873047 -18.50390625 12.89306641 C-18.51325195 11.75893311 -18.52259766 10.6247998 -18.53222656 9.45629883 C-18.13492886 5.99409429 -17.2447916 4.12714275 -15.17578125 1.35009766 C-10.77469417 -0.85044588 -4.88884893 0.04059412 0 0 Z " fill="#29313E" transform="translate(359.17578125,293.64990234375)"/>
<path d="M0 0 C0.67293091 -0.0038269 1.34586182 -0.00765381 2.03918457 -0.01159668 C3.4579417 -0.0143113 4.87674927 -0.00698134 6.29541016 0.00976562 C8.46240203 0.03118725 10.62607951 0.00995462 12.79296875 -0.015625 C14.17448646 -0.01298164 15.5560021 -0.00785647 16.9375 0 C18.18982422 0.00451172 19.44214844 0.00902344 20.73242188 0.01367188 C23.96875 0.53125 23.96875 0.53125 26.375 2.11132812 C28.5650879 5.43671894 28.48617494 7.81543286 28.5 11.78125 C28.5038269 12.47637695 28.50765381 13.17150391 28.51159668 13.88769531 C28.5143118 15.35353041 28.50697835 16.81941428 28.49023438 18.28515625 C28.46881419 20.52453975 28.49004443 22.76071587 28.515625 25 C28.51298165 26.42709039 28.5078565 27.85417879 28.5 29.28125 C28.49548828 30.57546875 28.49097656 31.8696875 28.48632812 33.203125 C27.96875 36.53125 27.96875 36.53125 26.34765625 38.95556641 C23.19941562 41.04082349 21.13668651 41.01864172 17.375 40.9921875 C15.45880859 40.98638672 15.45880859 40.98638672 13.50390625 40.98046875 C12.84148926 40.96806152 12.17907227 40.9556543 11.49658203 40.94287109 C9.47507239 40.90636418 7.4553987 40.90185195 5.43359375 40.90234375 C-5.86967306 40.79969047 -5.86967306 40.79969047 -9.03125 38.53125 C-12.46067904 33.78972714 -11.40317199 27.23758068 -11.40185547 21.63183594 C-11.40623674 19.53758891 -11.44260393 17.4454381 -11.48046875 15.3515625 C-11.48633617 14.01563217 -11.49030607 12.67969189 -11.4921875 11.34375 C-11.50040527 10.13332031 -11.50862305 8.92289062 -11.51708984 7.67578125 C-11.03125 4.53125 -11.03125 4.53125 -9.44189453 2.13867188 C-6.17644244 -0.03873714 -3.90951529 0.01408472 0 0 Z " fill="#29313E" transform="translate(714.03125,357.46875)"/>
<path d="M0 0 C1.00796127 -0.00929787 1.00796127 -0.00929787 2.0362854 -0.01878357 C3.45679274 -0.02588044 4.87738327 -0.02270974 6.29785156 -0.01000977 C8.46316297 0.00382066 10.62411888 -0.03015739 12.7890625 -0.06835938 C14.17187605 -0.06931102 15.55469498 -0.06744929 16.9375 -0.0625 C18.19095215 -0.0632251 19.4444043 -0.0639502 20.73583984 -0.06469727 C25.076927 0.74929594 26.52794221 2.00713776 29.1015625 5.56640625 C29.73266602 8.82446289 29.73266602 8.82446289 29.73046875 12.4765625 C29.73240234 13.79591797 29.73433594 15.11527344 29.73632812 16.47460938 C29.72384033 17.156604 29.71135254 17.83859863 29.69848633 18.54125977 C29.66409094 20.62718176 29.67785717 22.70888103 29.69726562 24.79492188 C29.62399674 34.78391373 29.62399674 34.78391373 27.50561523 37.95678711 C24.24479797 40.14004782 21.97881759 40.08357517 18.0703125 40.09765625 C17.39738159 40.10148315 16.72445068 40.10531006 16.03112793 40.10925293 C14.6123708 40.11196755 13.19356323 40.10463759 11.77490234 40.08789062 C9.60791047 40.066469 7.44423299 40.08770163 5.27734375 40.11328125 C3.89582604 40.11063789 2.5143104 40.10551272 1.1328125 40.09765625 C-0.11951172 40.09314453 -1.37183594 40.08863281 -2.66210938 40.08398438 C-5.8984375 39.56640625 -5.8984375 39.56640625 -8.30688477 37.97265625 C-10.46826548 34.70488997 -10.40030548 32.43752825 -10.39453125 28.53515625 C-10.39598648 27.86222534 -10.39744171 27.18929443 -10.39894104 26.49597168 C-10.3972855 25.07718565 -10.38576253 23.65838102 -10.36499023 22.23974609 C-10.33602717 20.07311408 -10.34438699 17.90893001 -10.35742188 15.7421875 C-10.35118392 14.36066524 -10.34279252 12.97915068 -10.33203125 11.59765625 C-10.32228271 10.34533203 -10.31253418 9.09300781 -10.30249023 7.80273438 C-9.43436334 0.84932642 -6.65348838 0.05783779 0 0 Z " fill="#29313E" transform="translate(712.8984375,486.43359375)"/>
<path d="M0 0 C2.19496444 -0.00971331 4.38899533 -0.04073972 6.58374023 -0.07226562 C7.97761488 -0.07879511 9.37149622 -0.0840458 10.76538086 -0.08789062 C12.67081665 -0.10190918 12.67081665 -0.10190918 14.61474609 -0.11621094 C17.76928711 0.24023438 17.76928711 0.24023438 19.68212891 1.29785156 C21.35999901 4.29563609 21.19687459 7.30105258 21.16772461 10.64648438 C21.17059479 11.36759399 21.17346497 12.08870361 21.17642212 12.83166504 C21.17846163 14.35474433 21.17293958 15.87784987 21.16040039 17.40087891 C21.14434354 19.73204115 21.16025121 22.06146979 21.17944336 24.39257812 C21.17746091 25.8730507 21.17361718 27.3535222 21.16772461 28.83398438 C21.17683365 29.87939392 21.17683365 29.87939392 21.18612671 30.94592285 C21.14666555 33.66155647 21.02787916 35.77635011 19.69140625 38.17382812 C15.18079563 40.67634904 9.15795211 39.75670845 4.09082031 39.74121094 C1.84236461 39.74023895 -0.40267237 39.78184794 -2.65063477 39.82617188 C-4.08226829 39.83137953 -5.51391365 39.83406706 -6.94555664 39.83398438 C-8.24614014 39.84107422 -9.54672363 39.84816406 -10.88671875 39.85546875 C-14.23071289 39.24023438 -14.23071289 39.24023438 -16.6550293 37.10546875 C-18.50989889 33.73256054 -18.73317941 31.63748204 -18.72680664 27.80273438 C-18.72745117 26.578125 -18.7280957 25.35351562 -18.72875977 24.09179688 C-18.7087793 22.82078125 -18.68879883 21.54976563 -18.66821289 20.24023438 C-18.67530273 18.96921875 -18.68239258 17.69820313 -18.68969727 16.38867188 C-18.6173755 5.81856757 -18.6173755 5.81856757 -15.23071289 1.24023438 C-10.83079333 -0.95972541 -4.89118868 0.01313512 0 0 Z " fill="#29313E" transform="translate(359.230712890625,422.759765625)"/>
<path d="M0 0 C15.71895425 0 15.71895425 0 21 4 C27.29266185 10.29266185 29.1096617 18.44721022 29.3125 27.0625 C29.23980175 35.07748177 27.55831209 43.01432216 22.6875 49.5625 C15.32213224 56.24271727 10.60182708 55 0 55 C0 36.85 0 18.7 0 0 Z " fill="#FFFFFF" transform="translate(792,653)"/>
<path d="M0 0 C3.50625 -0.0825 7.0125 -0.165 10.625 -0.25 C11.71893066 -0.28641602 12.81286133 -0.32283203 13.93994141 -0.36035156 C19.96922664 -0.42892901 23.42538438 -0.04040886 28 4 C30.58536545 7.40798172 30.43781946 10.8407151 30 15 C27.57058629 19.04902285 25.41610738 20.55364316 21 22 C18.50463867 22.22705078 18.50463867 22.22705078 15.91796875 22.1953125 C14.65762817 22.18781982 14.65762817 22.18781982 13.37182617 22.18017578 C12.32099854 22.16196777 11.2701709 22.14375977 10.1875 22.125 C5.1446875 22.063125 5.1446875 22.063125 0 22 C0 14.74 0 7.48 0 0 Z " fill="#FFFFFF" transform="translate(452,687)"/>
<path d="M0 0 C3.196875 -0.061875 6.39375 -0.12375 9.6875 -0.1875 C11.18543091 -0.22846802 11.18543091 -0.22846802 12.71362305 -0.27026367 C17.62243808 -0.31626063 21.04956091 -0.26851806 25 3 C27.33772514 5.90200363 27.96474659 7.72300894 28.4375 11.4375 C27.91284546 15.70968693 26.79623825 17.75031771 24 21 C19.3131718 23.67689995 14.41435061 23.22555914 9.1875 23.125 C6.155625 23.08375 3.12375 23.0425 0 23 C0 15.41 0 7.82 0 0 Z " fill="#FFFFFF" transform="translate(741,820)"/>
<path d="M0 0 C3.196875 -0.061875 6.39375 -0.12375 9.6875 -0.1875 C11.18543091 -0.22846802 11.18543091 -0.22846802 12.71362305 -0.27026367 C17.62243808 -0.31626063 21.04956091 -0.26851806 25 3 C27.33772514 5.90200363 27.96474659 7.72300894 28.4375 11.4375 C27.91284546 15.70968693 26.79623825 17.75031771 24 21 C19.3131718 23.67689995 14.41435061 23.22555914 9.1875 23.125 C6.155625 23.08375 3.12375 23.0425 0 23 C0 15.41 0 7.82 0 0 Z " fill="#FFFFFF" transform="translate(705,652)"/>
<path d="M0 0 C3.56331377 -0.10807017 7.1233422 -0.18735316 10.6875 -0.25 C12.19860352 -0.30027344 12.19860352 -0.30027344 13.74023438 -0.3515625 C21.2503749 -0.45070627 21.2503749 -0.45070627 25.14453125 1.890625 C28.00649544 5.14422639 28.00649544 5.14422639 27.984375 8.05859375 C27.86835938 9.23615234 27.86835938 9.23615234 27.75 10.4375 C27.68296875 11.21996094 27.6159375 12.00242187 27.546875 12.80859375 C26.8956961 15.41796062 26.10493912 16.36115454 24 18 C21.05868109 18.98043964 19.17498335 19.11621202 16.11328125 19.09765625 C15.17548828 19.09443359 14.23769531 19.09121094 13.27148438 19.08789062 C12.29501953 19.07951172 11.31855469 19.07113281 10.3125 19.0625 C9.32443359 19.05798828 8.33636719 19.05347656 7.31835938 19.04882812 C4.87888042 19.0370432 2.43943259 19.01910783 0 19 C0 12.73 0 6.46 0 0 Z " fill="#FFFFFF" transform="translate(452,652)"/>
<path d="M0 0 C3.04638933 4.56958399 4.11450943 9.69069435 5.625 14.9375 C5.94984375 16.03513672 6.2746875 17.13277344 6.609375 18.26367188 C7.06957031 19.84825195 7.06957031 19.84825195 7.5390625 21.46484375 C7.95986084 22.91298462 7.95986084 22.91298462 8.38916016 24.39038086 C9 27 9 27 9 31 C3.06 31 -2.88 31 -9 31 C-6.54109945 20.48136988 -3.32062457 10.27351809 0 0 Z " fill="#FFFFFF" transform="translate(506,827)"/>
<path d="M0 0 C3.04638933 4.56958399 4.11450943 9.69069435 5.625 14.9375 C5.94984375 16.03513672 6.2746875 17.13277344 6.609375 18.26367188 C7.06957031 19.84825195 7.06957031 19.84825195 7.5390625 21.46484375 C7.95986084 22.91298462 7.95986084 22.91298462 8.38916016 24.39038086 C9 27 9 27 9 31 C3.06 31 -2.88 31 -9 31 C-6.54109945 20.48136988 -3.32062457 10.27351809 0 0 Z " fill="#FFFFFF" transform="translate(632,659)"/>
</svg>
